<?xml version="1.0" encoding="UTF-8"?>
<!-- Generator: Adobe Illustrator 20.1.0, SVG Export Plug-In . SVG Version: 6.00 Build 0)  -->
<svg version="1.1" id="Layer_1" xmlns="http://www.w3.org/2000/svg" xmlns:xlink="http://www.w3.org/1999/xlink" x="0px" y="0px" viewBox="0 0 92 92" style="enable-background:new 0 0 92 92;" xml:space="preserve">
<style type="text/css">
	.st0{fill:#FFFFFF;}
	.st1{fill:#505150;}
</style>
<g>
	<path class="st0" d="M43.4,77.4c-0.9,2.8-1.9,5.2-2.3,7.8c-0.2,1.2,1,2.5,1.5,3.8c1.2-0.7,2.9-1.1,3.5-2.2c1.3-2.5,1.4-6.5,3.3-7.8   c2.2-1.4,5.9-0.4,8.9-0.5c6.9-0.3,12-4.8,13.2-11.7c0.4-2.7,0.6-5.4,1.2-8.1c0.2-0.8,0.9-1.6,1.6-2.3c1.8-1.8,4.2-3.3,5.4-5.4   c3.3-5.8,4.3-12.2,4.2-18.8c0-4-2.7-6.9-6.8-7.4c-2.2-0.3-3.1-1.3-3.9-3.2C64.1,1,37-3.4,21.8,13c-4.9,5.3-7.5,11.5-8.2,18.6   c-5.4,1.9-5.4,1.9-5.4,7.5c0,1.8,0,3.6,0,5.3c0,5.5,0,5.5,4.6,8.2c-0.2,1.1-0.3,2.2-0.5,3.4c-1.3,7.9-2.7,15.7-3.9,23.6   c-0.2,1.2,0.4,2.7,1.1,3.6c0.4,0.5,2.3,0.6,2.8,0.1c0.8-0.7,1.4-2.1,1.6-3.2c1.6-9.2,3.1-18.4,4.6-27.6c0.3-2.1,1.2-3.1,3.3-3.4   c5.7-0.9,11.4-1.9,17-3c1.9-0.4,2.7,0.2,3.6,1.9c2.6,5.1,6.7,8.4,12.5,8.7c4.1,0.2,8.2-0.2,12.3-0.3c-0.3,2.9-0.6,6.3-1.2,9.7   c-0.7,4.1-3.6,6.7-7.8,6.8c-2.5,0.1-5,0.1-7.5,0C41.9,72.5,35.3,68.6,31,61c-0.5-0.9-0.8-2.1-1.6-2.7c-0.9-0.7-2.4-1.3-3.2-0.9   c-0.8,0.3-1.5,1.9-1.5,2.9c0.1,1.3,0.9,2.6,1.5,3.7C30.1,70.6,35.9,74.9,43.4,77.4z"/>
	<path class="st1" d="M43.4,77.4c-7.5-2.5-13.2-6.8-17.1-13.4c-0.7-1.2-1.5-2.5-1.5-3.7c-0.1-1,0.7-2.6,1.5-2.9   c0.8-0.3,2.3,0.3,3.2,0.9c0.8,0.6,1.1,1.8,1.6,2.7c4.4,7.7,11,11.6,19.7,11.9c2.5,0.1,5,0.1,7.5,0c4.2-0.2,7.1-2.7,7.8-6.8   c0.5-3.4,0.8-6.8,1.2-9.7c-4.2,0.1-8.3,0.5-12.3,0.3c-5.8-0.3-10-3.6-12.5-8.7c-0.9-1.7-1.7-2.2-3.6-1.9c-5.7,1.1-11.3,2.1-17,3   c-2.1,0.3-3,1.3-3.3,3.4c-1.4,9.2-3,18.4-4.6,27.6c-0.2,1.2-0.7,2.5-1.6,3.2c-0.5,0.5-2.4,0.4-2.8-0.1c-0.7-0.9-1.3-2.4-1.1-3.6   c1.2-7.9,2.6-15.7,3.9-23.6c0.2-1.1,0.3-2.3,0.5-3.4C8.3,50,8.3,50,8.3,44.4c0-1.8,0-3.6,0-5.3c0-5.6,0-5.6,5.4-7.5   c0.7-7,3.3-13.3,8.2-18.6C37-3.4,64.1,1,73.1,21.6c0.8,1.9,1.7,2.9,3.9,3.2c4.1,0.6,6.7,3.5,6.8,7.4c0.1,6.6-0.9,13-4.2,18.8   c-1.2,2.1-3.6,3.6-5.4,5.4c-0.6,0.7-1.4,1.4-1.6,2.3c-0.5,2.7-0.7,5.4-1.2,8.1c-1.1,6.8-6.2,11.4-13.2,11.7c-3,0.1-6.7-0.9-8.9,0.5   c-2,1.3-2,5.3-3.3,7.8c-0.6,1.1-2.3,1.5-3.5,2.2c-0.5-1.3-1.7-2.6-1.5-3.8C41.4,82.6,42.5,80.2,43.4,77.4z M19.7,29.7   c16.2-1.9,32.2-3.9,48.2-5.8C64.7,13.9,52.8,7.1,40.7,8.7C30.2,10.1,20.3,20.1,19.7,29.7z M46.1,31.3c0,3.4,0,6.1,0,8.8   c-0.1,4.8,1.9,8.7,6.3,10.3c4.7,1.7,9.8,2.5,14.1-1.6c1.1-1.1,2.8-2.5,4.1-2.3c1.2,0.1,2.1,2.1,3.3,3.4c3.4-5.1,4.4-11.1,4.1-17.4   c0-0.8-2-2.3-3-2.3C65.5,30.4,56,30.8,46.1,31.3z M13.8,44.9c8.6-1.5,16.9-2.9,25.1-4.4c0.6-0.1,1.5-0.9,1.6-1.5   c0.2-2.1,0.1-4.3,0.1-7c-8.8,1.8-17,3.4-25.2,5.1c-0.6,0.1-1.4,1-1.4,1.7C13.7,40.8,13.8,42.9,13.8,44.9z"/>
	<path class="st0" d="M13.8,44.9c0-2-0.1-4.1,0.1-6.1c0.1-0.6,0.8-1.5,1.4-1.7c8.2-1.7,16.4-3.3,25.2-5.1c0,2.7,0.1,4.8-0.1,7   c0,0.6-0.9,1.4-1.6,1.5C30.6,42,22.4,43.4,13.8,44.9z"/>
</g>
</svg>