<svg xmlns="http://www.w3.org/2000/svg" viewBox="0 0 917.29456 267.52176" height="267.522" width="917.295"><defs><clipPath id="a"><path d="M24.005 230.017h181.06V29.987H24.006v200.03z"/></clipPath><clipPath id="b"><path d="M24.005 130.573h181.06V29.986H24.006v100.587z"/></clipPath><clipPath id="c"><path d="M142.854 60.877l54.45-30.226c3.504-1.945 7.81.59 7.81 4.6l-.048 60.215-62.212-34.588z"/></clipPath><linearGradient id="d" gradientTransform="rotate(-45 186.229 -159.097) scale(63.6898)" gradientUnits="userSpaceOnUse" x2="1"><stop offset="0" stop-color="#bf360c"/><stop offset=".628" stop-color="#fff"/><stop offset="1" stop-color="#fff"/></linearGradient></defs><path d="M461.435 195.247c9.154 0 17.465-3.413 24.934-10.24 7.468-6.825 11.2-14.895 11.2-24.212-6.263-5.138-15.658-7.71-28.185-7.71-10.763 0-18.875 2.332-24.332 6.988-5.462 4.663-8.19 10.119-8.19 16.383 0 5.781 2.487 10.359 7.467 13.731 4.975 3.375 10.678 5.062 17.105 5.062m-3.615 20.235c-12.528 0-23.007-3.612-31.44-10.84-8.432-7.228-12.648-16.782-12.648-28.668 0-12.847 4.978-22.925 14.938-30.235 9.956-7.307 22.242-10.963 36.862-10.963 13.008 0 23.688 2.41 32.038 7.229v-3.373c0-8.675-2.972-15.618-8.913-20.837-5.945-5.22-13.25-7.831-21.925-7.831-6.425 0-12.247 1.527-17.462 4.575-5.225 3.055-8.797 7.228-10.725 12.53l-20.234-8.673c2.725-7.067 8.106-13.612 16.137-19.637 8.032-6.021 18.63-9.033 31.804-9.033 15.093 0 27.623 4.419 37.583 13.25 9.955 8.835 14.933 21.284 14.933 37.343v71.312h-21.2V195.25h-.962c-8.835 13.492-21.766 20.236-38.788 20.236M561.075 93.58v16.382h.962c3.213-5.62 8.273-10.397 15.18-14.335 6.904-3.934 14.293-5.9 22.165-5.9 14.613 0 25.775 4.496 33.488 13.488 7.709 9 11.562 21.043 11.562 36.14v72.275H622.27v-68.903c0-21.84-9.72-32.765-29.15-32.765-9.158 0-16.625 3.655-22.408 10.963-5.782 7.308-8.675 15.778-8.675 25.415v65.287h-22.162V93.58h21.2zm160.14 101.667c10.437 0 19.312-3.855 26.621-11.565 7.306-7.709 10.963-18.069 10.963-31.077 0-13.01-3.657-23.37-10.963-31.08-7.312-7.71-16.184-11.562-26.622-11.562-10.28 0-19.115 3.895-26.5 11.683-7.392 7.791-11.084 18.109-11.084 30.957 0 12.85 3.692 23.169 11.082 30.958 7.388 7.792 16.223 11.684 26.503 11.684m-1.685 72.277c-13.975 0-25.381-3.496-34.21-10.481-8.835-6.988-15.178-14.979-19.034-23.971l20.235-8.432c2.25 6.422 6.385 11.804 12.409 16.14 6.021 4.338 12.888 6.505 20.6 6.505 12.2 0 21.8-3.657 28.788-10.962 6.987-7.31 10.48-17.225 10.48-29.754v-11.322h-.965c-3.855 5.78-9.317 10.6-16.383 14.453-7.07 3.855-15.021 5.782-23.85 5.782-15.262 0-28.43-6.022-39.513-18.07-11.08-12.044-16.62-26.98-16.62-44.808 0-17.829 5.54-32.765 16.622-44.812 11.081-12.045 24.25-18.068 39.51-18.068 8.831 0 16.782 1.925 23.852 5.783 7.066 3.853 12.528 8.672 16.383 14.455h.962V93.577H780v112.025c0 20.238-5.863 35.615-17.588 46.135-11.725 10.52-26.018 15.785-42.88 15.785m109.948-83.96c7.628 7.793 16.663 11.684 27.104 11.684 10.437 0 19.472-3.893 27.102-11.685 7.625-7.788 11.443-18.106 11.443-30.958 0-12.85-3.818-23.165-11.444-30.959-7.631-7.787-16.665-11.684-27.104-11.684-10.442 0-19.475 3.896-27.104 11.683-7.63 7.793-11.443 18.109-11.443 30.958 0 12.85 3.812 23.17 11.442 30.957m-16.502-75.887c11.4-11.963 25.935-17.95 43.606-17.95 17.665 0 32.2 5.987 43.605 17.95 11.404 11.966 17.106 26.944 17.106 44.93 0 17.987-5.702 32.967-17.105 44.931-11.405 11.967-25.937 17.948-43.604 17.948-17.67 0-32.205-5.98-43.606-17.947-11.406-11.962-17.105-26.941-17.105-44.93 0-17.987 5.7-32.962 17.105-44.931M382.64 211.628h-22.165V60.333H312.29v-21.2h118.534v21.2H382.64v151.295z" fill="#616161"/><path d="M3.381 119.272L216.565.837c4.383-2.434 9.768.735 9.768 5.748v236.87c0 5.013-5.385 8.182-9.768 5.747L3.381 130.767c-4.509-2.505-4.509-8.988 0-11.494" fill="#ffe082"/><g clip-path="url(#a)" transform="matrix(1.25 0 0 -1.25 -30 287.522)" opacity=".2"><path d="M26.705 133.456l170.548 94.75c3.505 1.946 7.813-.59 7.813-4.6v1.144c0 4.01-4.308 6.545-7.813 4.598l-170.548-94.75c-1.995-1.107-2.88-3.19-2.67-5.168a5.185 5.185 0 0 0 2.67 4.026" fill="#fff"/><g clip-path="url(#b)" opacity=".2"><path d="M26.705 125.404l170.548-94.75c3.505-1.946 7.813.59 7.813 4.6v1.142c0-4.01-4.308-6.545-7.813-4.598l-170.548 94.75" fill="#bf360c"/></g></g><g clip-path="url(#c)" transform="matrix(1.25 0 0 -1.25 -30 287.522)" opacity=".2"><path d="M142.854 60.877l54.45-30.226c3.504-1.945 7.81.59 7.81 4.6l-.048 60.215-62.212-34.588z" fill="url(#d)"/></g><path d="M70.802 81.817l77.765 43.203v86.406l-77.765-43.204V81.817z" fill="#ff9100"/><path d="M226.333 168.19V81.817l-77.765 43.237v86.372l77.764-43.235z" fill="#ff6d00"/><path d="M148.567 38.614L70.802 81.817l77.765 43.205 77.765-43.205-77.765-43.202z" fill="#ffab00"/></svg>