<?xml version="1.0" encoding="UTF-8"?>
<!-- Generator: Adobe Illustrator 19.2.0, SVG Export Plug-In . SVG Version: 6.00 Build 0)  -->
<svg version="1.1" id="Layer_1" xmlns="http://www.w3.org/2000/svg" xmlns:xlink="http://www.w3.org/1999/xlink" x="0px" y="0px" viewBox="0 0 46 46" style="enable-background:new 0 0 46 46;" xml:space="preserve">
<style type="text/css">
	.st0{fill:#FFE081;}
	.st1{opacity:0.2;}
	.st2{fill:#FFFFFF;}
	.st3{opacity:0.2;fill:#BE3A26;enable-background:new    ;}
	.st4{opacity:0.2;fill:url(#XMLID_2_);enable-background:new    ;}
	.st5{fill:#F7901E;}
	.st6{fill:#F36E21;}
	.st7{fill:#FBAA19;}
	.st8{fill:url(#XMLID_3_);}
</style>
<g id="Layer_3">
</g>
<g>
	<g id="XMLID_16_">
		<path id="XMLID_17_" class="st0" d="M2.2,20.9L37.6,1.2c0.7-0.4,1.6,0.1,1.6,1v39.3c0,0.8-0.9,1.4-1.6,1L2.2,22.8    C1.5,22.4,1.5,21.3,2.2,20.9z"/>
		<g id="XMLID_18_" class="st1">
			<path id="XMLID_19_" class="st2" d="M2.2,21.1L37.6,1.5c0.7-0.4,1.6,0.1,1.6,1V2.2c0-0.8-0.9-1.4-1.6-1L2.2,20.9     c-0.4,0.2-0.6,0.7-0.6,1.1C1.7,21.6,1.9,21.3,2.2,21.1z"/>
			<path id="XMLID_20_" class="st3" d="M2.2,22.8l35.4,19.6c0.7,0.4,1.6-0.1,1.6-1v-0.2c0,0.8-0.9,1.4-1.6,1L2.2,22.6     c-0.3-0.2-0.5-0.5-0.6-0.8C1.6,22.1,1.8,22.6,2.2,22.8z"/>
		</g>
		
			<linearGradient id="XMLID_2_" gradientUnits="userSpaceOnUse" x1="31.3153" y1="16.8347" x2="40.6506" y2="7.4993" gradientTransform="matrix(1 0 0 -1 0 48)">
			<stop offset="0" style="stop-color:#BE3A26"/>
			<stop offset="5.642146e-002" style="stop-color:#C44B39"/>
			<stop offset="0.2461" style="stop-color:#D58175"/>
			<stop offset="0.429" style="stop-color:#E4AEA6"/>
			<stop offset="0.6004" style="stop-color:#F0D1CD"/>
			<stop offset="0.7577" style="stop-color:#F8EAE8"/>
			<stop offset="0.8958" style="stop-color:#FDFAF9"/>
			<stop offset="1" style="stop-color:#FFFFFF"/>
		</linearGradient>
		<path id="XMLID_21_" class="st4" d="M26.3,36.2l11.3,6.3c0.7,0.4,1.6-0.1,1.6-1V29L26.3,36.2z"/>
		<g id="XMLID_22_">
			<polygon class="st5" points="13.4,14.7 26.3,21.8 26.3,36.2 13.4,29    "/>
			<polygon class="st6" points="39.2,29 39.2,14.7 26.3,21.8 26.3,36.2    "/>
			<polygon class="st7" points="26.3,7.5 13.4,14.7 26.3,21.8 39.2,14.7    "/>
		</g>
		
			<radialGradient id="XMLID_3_" cx="8.8663" cy="44.3845" r="59.6731" gradientTransform="matrix(1 0 0 -1 0 48)" gradientUnits="userSpaceOnUse">
			<stop offset="0" style="stop-color:#FFFFFF;stop-opacity:0.1"/>
			<stop offset="1" style="stop-color:#FFFFFF;stop-opacity:0"/>
		</radialGradient>
		<path id="XMLID_23_" class="st8" d="M2.2,20.9L37.6,1.2c0.7-0.4,1.6,0.1,1.6,1v39.3c0,0.8-0.9,1.4-1.6,1L2.2,22.8    C1.5,22.4,1.5,21.3,2.2,20.9z"/>
	</g>
</g>
</svg>