<svg xmlns="http://www.w3.org/2000/svg" viewBox="0 0 1024 1024" width="1024" height="1024"><g stroke-linejoin="round" fill="#00edff" fill-opacity=".2" stroke="#00a1c3" stroke-width="7"><path d="M6.793 1018.565l466.754-272.301 532.649 61.267L871.66 931.43z"/><path d="M3.755 276.389L470.97 4.047v746.217L3.755 1019.883zm469.419 472.466V3.702l531.774 453.361v347.895z"/><path d="M853.585 937.643L3.71 1020.297V276.29l849.875 277.577M468.228 5.792L3.918 275.275 868.34 558.083l140.338-99.205z"/></g><path fill="#fff" d="M855.534 550.105L1009.74 444.09v390.56L855.534 940.666z"/><path d="M992.899 437.413l-120.524 82.86c-17.157 11.795-31.11 41.913-31.11 67.133v335.59c0 25.22 13.953 36.14 31.11 24.345l120.523-82.86c17.156-11.794 31.11-41.897 31.11-67.12V461.77c0-25.22-13.953-36.153-31.109-24.358zM878.537 570.826l108.198-74.386v290.089l-108.197 74.385V570.825zm54.11 312.855c-3.42 2.352-6.476 2.418-8.809.883-2.643-1.715-4.342-5.502-4.342-11.158 0-10.667 5.873-23.336 13.152-28.34 7.23-4.97 13.105-.38 13.105 10.288 0 5.656-1.7 11.78-4.322 17.115-2.33 4.74-5.384 8.875-8.783 11.212z"/></svg>