<svg xmlns="http://www.w3.org/2000/svg" viewBox="0 0 360 102.8" width="360" height="102.8"><path d="M0-.2v102.9h360V-.2H0zm260 13.1h12.7l-19.5 68.7h-12.7L260 12.9zm26.2 0h12.7l-19.5 68.7h-12.7l19.5-68.7zM54 35.7c6.5 0 12.5 3.1 14.7 9.7 2.5-6 7.6-9.7 14.7-9.7 8.1 0 15.5 4.9 15.5 15.6v20.5h5.8v9.8H85.9V56.3c0-7.8-2.6-10.8-7.7-10.8-6.2 0-8.7 4.4-8.7 10.7v15.7h6v9.8H56.6V56.3c0-7.8-2.6-10.8-7.7-10.8-6.2 0-8.7 4.4-8.7 10.7v15.7h8.6v9.8H21.4v-9.8h6V46.4h-6v-9.8h18.9v6.8c2.7-4.8 7.4-7.7 13.7-7.7zm80.5 0c16.2 0 24.1 10.9 24.1 23.5 0 14.4-10.4 23.5-24.8 23.5-13.9 0-23.5-8.5-23.5-22.9 0-13.2 8-24.1 24.2-24.1zm186.4 0c9.7 0 17.9 5 17.9 15.3v19.5c0 2.6 1 3.5 3.1 3.5.6 0 1.2-.1 1.9-.3l.3 6.9c-2.4 1.3-5.3 2.1-8.1 2.1-6 0-9.3-3.5-9.9-9-2.6 4.6-7.2 9-14.5 9-6.5 0-13.9-3.5-13.9-12.9 0-11.1 10.7-13.7 21-13.7 2.5 0 5.1.1 7.4.4V55c0-4.6-.1-10.1-7.4-10.1-2.7 0-4.8.2-6.9 1.3l-1.5 5.1-10.3-1.1 1.6-10.4c7.9-3.2 11.9-4.1 19.3-4.1zm-154.1.9h39.5l1 6.8-25 28.5h14.6l2.1-7 10.2 1-2.8 15.8h-39.3l-1.3-6.8 24.8-28.5h-14.1l-2 7-9.3-1 1.6-15.8zm51.9 0h13.5v16.2h-13.5V36.6zm-84.4 8.9c-6.6 0-10.7 4.9-10.7 13.4 0 7.8 3.6 13.8 10.6 13.8 6.7 0 11.1-5.3 11.1-14 0-9.1-4.9-13.2-11-13.2zM319.5 62c-4.6 0-8.6 1.3-8.6 6.2 0 2.9 1.4 5.2 5.3 5.2 4.6 0 9.5-3.3 9.8-10.8-2.1-.3-4.4-.6-6.5-.6zm-100.8 3.5h13.5v16.2h-13.5V65.5z"/></svg>