<svg xmlns="http://www.w3.org/2000/svg" viewBox="0 0 512 512" width="512" height="512"><path d="M103.496 267.818H21.233c-11.71 0-21.233 9.53-21.233 21.24v155.816c0 11.71 9.523 21.234 21.233 21.234h82.262c11.71 0 21.234-9.523 21.234-21.234V289.058c0-11.71-9.523-21.24-21.233-21.24zm-78.057 25.439h73.85v134.69H25.44v-134.69zM62.372 455.79c-2.335 0-4.421-.945-6.013-2.402-1.804-1.64-2.964-3.941-2.964-6.567 0-4.953 4.009-8.96 8.977-8.96 4.935 0 8.945 4.007 8.945 8.96 0 2.626-1.16 4.927-2.95 6.567-1.59 1.457-3.675 2.402-5.995 2.402zm176.17-293.457H119.428c-19.443 0-35.26 15.817-35.26 35.261v49.024h19.327c5.15 0 10.02 1.06 14.591 2.74v-51.764a1.34 1.34 0 0 1 1.342-1.342h119.114a1.34 1.34 0 0 1 1.342 1.342v165.33H145.93v47.948h92.614c19.445 0 35.262-15.817 35.262-35.262V197.594c-.001-19.443-15.818-35.26-35.263-35.26zm-59.557 233.038c-4.288 0-7.916-2.525-9.755-6.112-.778-1.514-1.325-3.163-1.325-4.975 0-6.121 4.97-11.08 11.08-11.08 6.113 0 11.08 4.959 11.08 11.08 0 1.813-.545 3.461-1.323 4.975-1.84 3.587-5.467 6.112-9.757 6.112zm322.316-90.023H299.24v38.746h184.72c15.485 0 28.04-12.554 28.04-28.048 0-5.904-4.786-10.698-10.7-10.698zM176.584 79.813l273.042-1.16v184.934l-150.384.637v33.272h151.544c18.068 0 32.758-14.698 32.758-32.76V78.652c0-18.06-14.69-32.76-32.758-32.76H176.584c-18.069 0-32.76 14.7-32.76 32.76v58.24h33.124l-.364-57.08z"/></svg>