<svg xmlns="http://www.w3.org/2000/svg" viewBox="0 0 40 30" width="40" height="30"><path d="M0 0v30h40V0z" fill="#00247d"/><path d="M0 0v3.36L15.52 15 0 26.64V30h4.483L20 18.375 35.517 30H40v-3.36L24.48 15 40 3.36V0h-4.483L20 11.625 4.483 0H0z" fill="#fff"/><path d="M0 0v2.219L17 15 0 27.781V30h2.969L20 17.25 37.031 30H40v-2.219L22.969 15 40 2.219V0h-2.969L20 12.75 3 0H0z" fill="#cf142b"/><path d="M17 0v10H0v10h16.667v10h6.666V20H40V10H23.333V0h-6.666z" fill="#fff"/><path d="M18 0v12H0v6h18v12h4V18h18v-6H22V0h-4z" fill="#cf142b"/></svg>