<svg xmlns="http://www.w3.org/2000/svg" viewBox="0 0 1024 512" width="1024" height="512"><g fill="#00edff" fill-opacity=".2" stroke="#00a1c3" stroke-width="3.601" stroke-linejoin="round"><path d="M3.304 502.359L230.3 369.929l259.044 29.797-65.429 60.255z"/><path d="M1.826 141.415L229.048 8.966v362.91L1.826 503zM230.12 371.19V8.8l258.618 220.484v169.192z"/><path d="M415.126 463.004L1.805 503.2V141.367l413.32 134.994M227.714 9.815L1.905 140.873l420.397 137.539 68.25-48.247z"/></g><path fill="#fff" d="M421.903 274.25l64.184-45.962v186.384l-64.184 45.962z"/><path d="M493.85 310.13c0 34.635-17.754 76.357-39.654 93.185-21.898 16.827-39.655 2.393-39.655-32.243 0-34.632 17.757-76.359 39.655-93.186 21.9-16.829 39.655-2.39 39.655 32.243" fill="#ffcc4d"/><path d="M445.384 328.21c0 8.661-2.466 21.057-5.508 23.394-3.042 2.338-5.508-6.269-5.508-14.93 0-8.658 2.466-21.057 5.508-23.395 3.042-2.338 5.508 6.272 5.508 14.93m28.64-22.007c0 8.662-2.466 21.057-5.508 23.395-3.043 2.338-5.508-6.269-5.508-14.93 0-8.659 2.465-21.058 5.508-23.395 3.042-2.338 5.507 6.272 5.507 14.93m-19.827 48.335c-7.982 6.134-13.278 8.733-19.828 11.752-1.495.693-4.406 3.386-4.406 10.354 0 13.937 10.123 23.579 24.234 12.736 14.108-10.841 24.233-36.042 24.233-49.979 0-6.968-2.91-5.192-4.406-3.583-6.55 7.047-11.845 12.587-19.827 18.72" fill="#664500"/><path d="M434.368 373.257s6.61-1.594 19.828-11.751c13.218-10.158 19.827-18.72 19.827-18.72s-4.406 17.322-19.827 29.172c-15.421 11.85-19.828 1.3-19.828 1.3" fill="#fff"/><path d="M426.58 239.483c0 77.877-39.92 171.685-89.162 209.524-49.237 37.834-89.162 5.38-89.162-72.497 0-77.869 39.925-171.689 89.162-209.523 49.242-37.839 89.162-5.373 89.162 72.496" fill="#ffcc4d"/><path d="M317.604 280.135c0 19.475-5.543 47.346-12.383 52.603-6.841 5.256-12.384-14.096-12.384-33.571 0-19.467 5.543-47.346 12.384-52.602 6.84-5.257 12.383 14.103 12.383 33.57M382 230.653c0 19.476-5.543 47.346-12.384 52.603-6.84 5.256-12.383-14.096-12.383-33.571 0-19.467 5.543-47.346 12.383-52.602 6.841-5.257 12.384 14.103 12.384 33.57m-44.581 108.68c-17.946 13.79-29.854 19.634-44.581 26.422-3.363 1.558-9.907 7.613-9.907 23.28 0 31.336 22.761 53.015 54.488 28.636 31.722-24.376 54.488-81.039 54.488-112.374 0-15.668-6.544-11.674-9.907-8.055-14.727 15.844-26.635 28.3-44.581 42.09" fill="#664500"/><path d="M292.837 381.423s14.86-3.585 44.58-26.423C367.14 332.162 382 312.91 382 312.91s-9.907 38.947-44.581 65.592c-34.674 26.644-44.581 2.92-44.581 2.92" fill="#fff"/><g fill="#00edff" fill-opacity=".2" stroke="#00a1c3" stroke-width="3.601" stroke-linejoin="round"><path d="M529.292 502.359l226.998-132.43 259.044 29.797-65.429 60.255z"/><path d="M527.815 141.415L755.036 8.966v362.91L527.815 503zM756.108 371.19V8.8l258.619 220.484v169.192z"/><path d="M941.114 463.004L527.794 503.2V141.367l413.32 134.994M753.703 9.815l-225.81 131.058 420.398 137.539 68.25-48.247z"/></g><path fill="#fff" d="M949.121 270.098l64.185-45.962V410.52l-64.185 45.962z"/><path d="M991.082 329.879c0 7.863-4.03 17.336-9.003 21.157-4.972 3.82-9.003.543-9.003-7.32s4.031-17.337 9.003-21.157c4.973-3.821 9.003-.543 9.003 7.32" fill="#ffcc4d"/><path d="M980.079 333.984c0 1.966-.56 4.78-1.25 5.311-.692.531-1.251-1.423-1.251-3.39 0-1.965.56-4.78 1.25-5.31.69-.532 1.25 1.423 1.25 3.389m6.503-4.997c0 1.967-.56 4.781-1.25 5.312-.691.53-1.251-1.423-1.251-3.39 0-1.966.56-4.78 1.25-5.311.691-.531 1.25 1.424 1.25 3.39m-4.5 10.973c-1.813 1.393-3.015 1.983-4.502 2.668-.34.158-1 .77-1 2.351 0 3.164 2.298 5.353 5.501 2.892 3.203-2.462 5.502-8.183 5.502-11.348 0-1.582-.66-1.178-1-.813-1.487 1.6-2.69 2.858-4.502 4.25" fill="#664500"/><path d="M977.578 344.211s1.5-.362 4.501-2.668c3.001-2.306 4.502-4.25 4.502-4.25s-1 3.933-4.502 6.623c-3.501 2.69-4.501.295-4.501.295" fill="#fff"/><path d="M728.927 200.45c0 77.876-39.92 171.684-89.162 209.523-49.237 37.834-89.162 5.38-89.162-72.497 0-77.869 39.925-171.689 89.162-209.523 49.242-37.839 89.162-5.373 89.162 72.496" fill="#ffcc4d"/><path d="M619.951 241.101c0 19.475-5.543 47.346-12.383 52.603-6.841 5.256-12.384-14.096-12.384-33.571 0-19.467 5.543-47.346 12.384-52.602 6.84-5.257 12.383 14.103 12.383 33.57m64.395-49.482c0 19.476-5.543 47.346-12.384 52.603-6.84 5.256-12.383-14.096-12.383-33.571 0-19.467 5.543-47.346 12.383-52.602 6.841-5.257 12.384 14.103 12.384 33.57M639.765 300.3c-17.946 13.79-29.854 19.634-44.581 26.422-3.363 1.558-9.907 7.613-9.907 23.28 0 31.336 22.761 53.015 54.488 28.636 31.722-24.376 54.488-81.039 54.488-112.374 0-15.668-6.544-11.674-9.907-8.055-14.727 15.844-26.635 28.3-44.581 42.09" fill="#664500"/><path d="M595.184 342.389s14.86-3.585 44.58-26.423c29.722-22.838 44.582-42.09 44.582-42.09s-9.907 38.947-44.581 65.592c-34.674 26.644-44.581 2.92-44.581 2.92" fill="#fff"/><path d="M1008.867 219.726l-58.615 40.298c-8.344 5.736-15.129 20.383-15.129 32.648V455.88c0 12.266 6.785 17.577 15.13 11.84l58.613-40.297c8.344-5.736 15.13-20.376 15.13-32.643V231.572c0-12.265-6.785-17.582-15.129-11.846zm-55.618 64.883l52.62-36.176v141.08l-52.62 36.175v-141.08zm26.316 152.151c-1.664 1.144-3.15 1.176-4.284.43-1.286-.834-2.112-2.676-2.112-5.427 0-5.188 2.856-11.349 6.396-13.782 3.516-2.418 6.374-.185 6.374 5.003 0 2.75-.827 5.729-2.102 8.324-1.133 2.305-2.619 4.316-4.272 5.452zM482.878 219.726l-58.614 40.298c-8.344 5.736-15.13 20.383-15.13 32.648V455.88c0 12.266 6.786 17.577 15.13 11.84l58.614-40.297c8.343-5.736 15.13-20.376 15.13-32.643V231.572c0-12.265-6.786-17.582-15.13-11.846zm-55.618 64.883l52.62-36.176v141.08l-52.619 36.175v-141.08zm26.316 152.151c-1.663 1.144-3.15 1.176-4.284.43-1.286-.834-2.112-2.676-2.112-5.427 0-5.188 2.856-11.349 6.396-13.782 3.517-2.418 6.374-.185 6.374 5.003 0 2.75-.827 5.729-2.102 8.324-1.133 2.305-2.619 4.316-4.272 5.452z"/></svg>